<?xml version="1.0" standalone="no"?>
<!DOCTYPE svg PUBLIC "-//W3C//DTD SVG 20010904//EN"
 "http://www.w3.org/TR/2001/REC-SVG-20010904/DTD/svg10.dtd">
<svg version="1.0" xmlns="http://www.w3.org/2000/svg"
 width="640.000000pt" height="640.000000pt" viewBox="0 0 640.000000 640.000000"
 preserveAspectRatio="xMidYMid meet">

<g transform="translate(0.000000,640.000000) scale(0.100000,-0.100000)"
fill="#000000" stroke="none">
<path d="M1925 6006 c-38 -11 -40 -14 -43 -56 -2 -25 -8 -49 -13 -55 -10 -10
-219 -55 -258 -55 -14 0 -33 8 -43 17 -11 10 -41 18 -76 21 -52 3 -61 1 -99
-29 -51 -39 -93 -116 -123 -224 -20 -69 -23 -111 -27 -310 -5 -247 1 -307 48
-430 40 -109 126 -163 214 -135 53 17 124 18 215 1 133 -25 141 -40 116 -233
-10 -77 -16 -199 -16 -322 l0 -198 -74 -71 c-71 -69 -75 -75 -92 -147 -15 -58
-20 -131 -24 -330 l-5 -255 -36 2 c-20 1 -155 31 -300 67 -492 121 -1267 306
-1281 306 -5 0 -8 -803 -8 -1785 l0 -1785 3200 0 3200 0 0 1146 0 1146 -46
132 c-49 136 -162 374 -241 504 -43 70 -45 77 -39 126 11 78 44 219 83 345 50
166 63 245 63 402 0 139 -13 209 -40 209 -19 0 -145 -47 -318 -119 -94 -39
-180 -71 -190 -71 -31 0 -159 62 -350 169 -149 83 -374 191 -400 191 -9 0
-324 119 -432 163 -47 19 -139 52 -205 72 -187 58 -187 58 -219 106 -48 73
-191 261 -229 302 -58 62 -122 48 -189 -40 -20 -26 -85 -96 -145 -154 -80 -79
-120 -110 -153 -121 -211 -72 -333 -127 -494 -223 -86 -50 -336 -225 -364
-254 -19 -20 -171 -141 -177 -141 -2 0 -25 18 -51 41 -26 23 -67 50 -91 62
-34 16 -43 26 -43 46 -2 163 4 568 9 610 4 33 12 57 21 61 34 17 172 34 279
35 l113 0 38 42 c82 92 140 256 164 458 14 127 7 211 -30 348 -31 112 -62 174
-113 220 -48 43 -75 52 -142 43 -27 -3 -70 -9 -97 -12 -26 -3 -67 -1 -90 6
-38 10 -49 19 -84 75 -22 35 -47 66 -56 69 -16 5 -171 27 -175 25 -1 0 -20 -6
-42 -13z m-40 -223 c3 -16 18 -40 32 -55 29 -30 31 -29 -55 -48 -28 -7 -55
-17 -59 -22 -10 -18 242 -1 317 20 l65 19 8 49 c5 27 12 53 17 58 9 9 150 -19
185 -36 38 -20 75 -62 85 -98 6 -19 26 -53 45 -74 25 -27 33 -42 25 -50 -19
-19 -11 -99 14 -141 l24 -39 -20 -51 c-16 -39 -19 -64 -14 -112 5 -60 4 -63
-31 -105 -41 -49 -70 -107 -78 -158 -12 -80 -51 -114 -170 -147 -73 -20 -265
-28 -380 -14 -98 11 -292 56 -308 71 -4 4 3 21 17 37 30 36 46 74 46 112 0 16
11 53 25 84 23 49 26 68 25 169 0 62 0 136 2 163 1 28 -6 96 -15 153 -13 88
-21 109 -51 151 l-36 48 78 22 c160 45 194 44 207 -6z m-360 13 c24 -10 39
-26 50 -53 9 -21 28 -50 42 -65 21 -22 27 -41 35 -110 21 -195 21 -194 3 -228
-16 -31 -16 -35 0 -77 22 -58 14 -119 -24 -187 -21 -38 -27 -60 -23 -88 3 -30
-1 -42 -27 -70 -18 -18 -41 -48 -51 -66 -19 -31 -45 -50 -56 -40 -2 3 7 27 20
54 14 27 28 74 31 104 6 58 0 53 -29 -30 -21 -60 -58 -105 -79 -97 -23 9 -65
96 -81 169 -48 211 -17 573 59 704 42 72 70 67 112 -21 l24 -50 -5 39 c-3 21
-14 56 -26 77 -29 57 -29 57 25 35z m469 -21 c3 -9 0 -15 -9 -15 -9 0 -12 6
-9 15 4 8 7 15 9 15 2 0 5 -7 9 -15z m565 -33 c141 -146 160 -482 45 -772 -38
-95 -78 -145 -124 -155 -41 -9 -48 0 -22 28 16 17 22 36 22 73 1 66 31 129 86
180 40 36 45 44 35 62 -17 33 -13 109 10 162 l21 48 -26 45 c-29 49 -32 80
-14 140 10 34 10 41 -2 45 -8 3 -30 20 -48 38 -25 25 -32 39 -27 55 5 15 -2
32 -25 60 l-31 39 27 0 c20 0 41 -14 73 -48z m-519 28 c0 -5 -7 -10 -16 -10
-8 0 -12 5 -9 10 3 6 10 10 16 10 5 0 9 -4 9 -10z m1747 -1007 c97 -116 193
-245 218 -292 28 -52 34 -57 85 -72 30 -10 95 -29 144 -44 49 -15 158 -55 242
-90 84 -35 239 -94 345 -130 198 -68 303 -116 449 -205 47 -28 154 -85 237
-126 l152 -74 53 19 c29 11 136 54 238 95 l185 76 3 -153 c4 -171 -4 -218 -55
-350 -18 -49 -45 -143 -58 -209 -14 -66 -31 -142 -39 -169 -14 -47 -14 -49 15
-91 89 -127 126 -191 192 -335 41 -87 83 -185 94 -218 25 -73 77 -314 70 -322
-5 -5 -236 45 -312 68 -16 4 -122 27 -235 49 -247 50 -287 49 -440 -5 -109
-39 -268 -87 -355 -106 -32 -8 -102 -10 -192 -6 -133 5 -146 7 -190 33 -87 51
-93 61 -93 161 l0 88 47 70 c26 38 69 94 96 123 51 55 53 72 9 72 -20 0 -42
-16 -84 -62 l-58 -61 -83 17 c-45 10 -190 44 -322 76 -132 31 -321 76 -420
100 -99 23 -261 61 -360 85 -99 24 -299 71 -445 105 -146 34 -440 104 -655
155 -214 51 -406 96 -425 100 -94 18 -108 25 -119 57 -21 58 -33 317 -21 427
15 134 34 194 77 242 20 22 38 38 40 36 2 -2 5 -96 6 -208 2 -170 6 -209 20
-236 57 -106 215 -106 266 1 19 39 21 61 21 254 0 168 3 212 13 212 23 0 104
-57 130 -91 13 -19 35 -54 47 -79 26 -53 87 -120 110 -120 8 0 22 5 30 10 12
8 10 15 -17 42 -40 42 -83 107 -83 125 0 19 39 55 204 184 279 221 497 347
741 428 116 39 155 57 174 78 13 15 76 84 140 152 64 68 118 128 119 132 7 17
26 9 49 -18z m-1847 -59 c0 -2 -7 -4 -15 -4 -8 0 -15 4 -15 10 0 5 7 7 15 4 8
-4 15 -8 15 -10z m65 -4 c-3 -5 -13 -10 -21 -10 -8 0 -12 5 -9 10 3 6 13 10
21 10 8 0 12 -4 9 -10z m75 -15 c-1 -18 -2 -18 -11 -3 -5 9 -16 15 -23 12 -8
-3 -17 0 -21 6 -4 7 4 10 24 8 24 -2 31 -7 31 -23z m-157 -80 c3 -20 2 -46 -4
-58 -9 -21 -9 -21 -5 3 3 14 1 42 -3 62 -5 21 -5 36 -1 33 4 -2 10 -21 13 -40z
m-26 -77 c-3 -7 -5 -2 -5 12 0 14 2 19 5 13 2 -7 2 -19 0 -25z m33 -28 c0 -5
-4 -10 -9 -10 -5 0 -11 -10 -14 -22 -3 -20 -5 -21 -11 -6 -5 10 -2 23 6 32 15
18 28 20 28 6z m133 -77 c10 -99 8 -936 -1 -951 -5 -7 -10 42 -11 110 -1 67
-4 124 -7 127 -2 2 -4 -48 -4 -112 0 -64 -4 -118 -10 -122 -5 -3 -7 9 -4 32 8
55 -9 655 -17 613 l-6 -35 -3 35 c-2 22 -4 27 -7 14 -2 -11 0 -46 5 -77 5 -31
5 -57 0 -57 -4 0 -8 18 -8 40 0 22 -4 40 -9 40 -5 0 -11 18 -13 40 -3 31 0 40
12 40 12 0 12 2 1 9 -10 6 -11 24 -7 67 3 33 6 73 6 91 0 40 19 55 22 16 1
-19 3 -14 8 17 5 35 8 20 10 -65 1 -60 6 -153 10 -205 6 -78 7 -59 7 110 1
217 4 290 14 290 3 0 9 -30 12 -67z m-43 36 c0 -6 -4 -7 -10 -4 -5 3 -10 11
-10 16 0 6 5 7 10 4 6 -3 10 -11 10 -16z m-95 -63 c10 4 15 -1 15 -16 0 -11
-4 -18 -10 -15 -6 4 -10 -10 -10 -35 0 -23 4 -39 9 -36 5 3 12 -1 15 -10 9
-24 7 -122 -2 -126 -5 -1 -11 -55 -14 -118 -2 -63 -3 -98 -1 -77 3 20 9 37 15
37 7 0 9 -20 4 -62 -4 -35 -11 -119 -16 -187 -6 -81 -14 -127 -22 -133 -11 -6
-11 -10 0 -16 8 -6 12 -28 11 -64 -2 -47 -4 -54 -16 -43 -10 11 -13 100 -13
472 1 309 4 452 11 441 5 -10 16 -15 24 -12z m82 -518 c-2 -24 -4 -7 -4 37 0
44 2 63 4 43 2 -21 2 -57 0 -80z m2473 -1736 c0 -5 -11 -14 -25 -20 -39 -18
-44 -14 -10 7 36 23 35 23 35 13z m-991 -56 c15 -18 8 -32 -59 -121 -28 -36
-47 -65 -42 -65 11 0 102 95 126 132 10 15 22 25 27 22 18 -11 8 -50 -22 -87
-17 -20 -26 -37 -20 -37 37 0 -21 -82 -60 -84 -17 -1 -25 -8 -27 -25 -6 -39
-110 -137 -160 -151 -23 -6 -47 -8 -52 -5 -4 3 -11 -3 -15 -14 -17 -54 -112
-119 -151 -104 -8 3 -25 -3 -37 -14 -39 -36 -61 -42 -165 -41 -77 0 -106 4
-117 15 -27 27 -18 41 28 42 23 0 60 7 82 15 l40 15 -70 -5 c-88 -8 -104 4
-84 63 17 52 171 204 287 282 104 70 251 143 333 165 71 19 143 20 158 2z
m913 7 c-6 -2 -10 -9 -7 -14 4 -5 0 -7 -7 -4 -17 6 -80 -53 -72 -67 4 -6 -3
-5 -15 2 -17 9 -26 9 -37 -1 -8 -6 -17 -10 -19 -7 -6 5 146 98 160 97 5 0 4
-3 -3 -6z m-18 -57 c-3 -9 -10 -13 -16 -10 -5 3 -4 12 3 20 15 18 22 13 13
-10z m196 -26 c-13 -9 -13 -10 0 -10 13 0 13 -2 1 -9 -8 -5 -21 -7 -29 -3 -10
3 -13 1 -8 -6 8 -13 -23 -31 -42 -25 -7 3 -12 1 -11 -4 3 -20 -2 -27 -11 -13
-8 13 -10 13 -10 -2 0 -11 -19 -27 -47 -42 -27 -13 -64 -36 -82 -50 -19 -14
-42 -24 -50 -21 -9 2 -23 0 -31 -6 -11 -8 -9 -9 10 -3 33 9 24 0 -45 -41 -31
-19 -62 -32 -68 -28 -5 3 -7 2 -4 -3 3 -6 -33 -34 -81 -64 -48 -29 -97 -63
-110 -74 -23 -21 -24 -21 -38 -2 -17 23 -19 50 -3 40 8 -4 8 0 0 15 -13 24
-23 28 -15 6 4 -8 1 -15 -5 -15 -6 0 -11 9 -11 20 0 11 5 20 10 20 6 0 10 8
10 17 0 14 -3 13 -16 -5 l-16 -23 -19 25 c-10 13 -19 30 -19 38 1 7 60 49 131
93 147 90 149 91 149 76 0 -7 -11 -16 -25 -21 -23 -9 -35 -22 -17 -19 21 4 24
-3 6 -16 -26 -19 -38 -19 -30 2 6 15 5 16 -11 1 -10 -9 -28 -19 -40 -22 -13
-4 -23 -12 -23 -17 0 -6 4 -8 9 -5 5 3 8 -5 7 -19 -1 -17 -5 -23 -15 -20 -8 3
-27 0 -42 -7 -26 -11 -28 -17 -25 -53 3 -32 8 -39 23 -37 14 2 15 1 4 -6 -9
-6 -10 -12 -3 -16 6 -4 8 -14 5 -22 -5 -14 -3 -14 15 -3 11 7 18 17 15 22 -6
10 26 40 47 45 8 2 19 10 23 19 8 13 11 13 25 0 15 -14 19 -14 38 1 20 17 24
24 24 42 0 6 11 10 25 10 14 0 33 4 43 9 9 5 26 13 37 16 13 5 16 9 7 12 -7 3
-24 -3 -38 -12 -26 -17 -41 -15 -30 4 4 6 22 13 41 17 19 3 32 10 29 15 -3 5
2 6 10 3 9 -3 16 -2 16 4 0 5 21 16 47 23 28 9 48 21 51 32 5 18 22 24 22 6 0
-5 5 -7 10 -4 6 4 7 11 4 17 -4 6 1 8 15 3 15 -4 21 -2 21 8 0 7 11 20 25 27
14 8 24 19 21 25 -6 16 11 41 21 32 4 -5 1 -13 -7 -18 -11 -8 -9 -9 10 -4 14
4 34 13 45 20 11 8 25 14 30 14 6 1 3 -4 -5 -9z m-324 -33 c7 -7 -19 -11 -46
-7 -8 1 -12 -1 -8 -6 4 -4 3 -13 -3 -21 -13 -15 -5 -17 20 -4 13 7 18 6 18 -3
0 -13 -45 -15 -65 -2 -7 4 -12 4 -11 -1 3 -12 -13 -47 -25 -55 -19 -13 -29 -9
-16 7 7 8 10 21 6 30 -6 18 30 40 59 37 15 -2 17 -1 6 6 -11 8 -10 12 5 20 20
11 49 11 60 -1z m-594 -129 c160 -164 248 -303 303 -480 25 -79 26 -92 15
-137 -12 -50 -24 -66 -63 -86 -30 -15 -80 -100 -86 -147 -3 -23 -13 -44 -21
-48 -86 -40 -110 -56 -140 -95 -29 -38 -39 -45 -62 -40 -36 6 -85 -12 -130
-47 -35 -27 -38 -28 -87 -16 -41 9 -56 9 -75 -2 -21 -10 -33 -11 -70 0 -36 10
-61 29 -118 88 l-72 76 42 36 c23 19 42 43 42 52 0 9 -16 39 -35 68 -43 64
-44 72 -5 35 39 -37 46 -28 14 18 -13 20 -45 77 -69 126 -64 129 -91 135 -40
9 14 -34 25 -62 25 -62 0 -1 -36 0 -81 2 l-80 4 -20 45 c-28 66 -63 192 -55
200 4 4 35 6 69 5 53 -2 72 2 118 26 30 16 75 34 101 42 33 8 62 27 95 60 29
28 68 54 97 65 57 21 124 78 151 129 11 20 32 41 48 47 33 14 67 63 67 97 0
41 31 23 122 -70z m398 -680 c0 -35 -29 -94 -86 -174 -96 -136 -285 -272 -462
-333 -87 -30 -209 -29 -263 1 -57 32 -51 48 15 41 34 -4 56 -2 60 6 10 16 62
14 97 -5 37 -18 55 -13 70 20 17 37 72 59 124 52 42 -7 43 -6 69 38 32 56 65
82 113 91 50 9 63 21 63 59 0 66 64 163 119 181 10 3 26 24 35 48 16 40 18 41
31 23 8 -11 15 -33 15 -48z m-1029 -85 c13 -16 12 -17 -3 -4 -17 13 -22 21
-14 21 2 0 10 -8 17 -17z m24 -32 c3 -5 2 -12 -3 -15 -5 -3 -9 1 -9 9 0 17 3
19 12 6z m19 -37 c3 -8 2 -12 -4 -9 -6 3 -10 10 -10 16 0 14 7 11 14 -7z"/>
<path d="M1990 5529 c-19 -6 -39 -14 -43 -18 -4 -4 65 -11 155 -15 90 -3 175
-9 191 -12 41 -9 34 14 -10 33 -46 19 -242 27 -293 12z"/>
<path d="M1775 5438 c-3 -8 -4 -66 -3 -129 l3 -114 87 -3 c77 -2 90 0 108 18
22 22 28 84 9 95 -7 5 -8 24 -4 54 10 73 -5 85 -109 90 -67 2 -87 0 -91 -11z
m134 -47 c27 -17 4 -41 -39 -41 -33 0 -40 3 -40 19 0 14 8 21 28 24 15 2 29 5
32 5 3 1 11 -2 19 -7z m14 -110 c20 -20 -1 -41 -43 -41 -43 0 -58 15 -46 46 5
13 15 15 43 11 20 -4 41 -11 46 -16z"/>
<path d="M2102 5437 c-6 -7 -25 -49 -42 -92 -17 -44 -35 -90 -40 -103 -25 -59
9 -72 54 -21 25 27 33 31 65 25 22 -3 43 -15 54 -31 21 -28 57 -34 57 -9 0 16
-64 193 -81 227 -11 20 -52 23 -67 4z m46 -115 c3 -17 -2 -22 -17 -22 -22 0
-25 8 -15 35 9 22 28 14 32 -13z"/>
<path d="M2274 5416 c-11 -61 -1 -216 15 -225 29 -19 40 0 43 72 l3 70 45 -69
c36 -54 51 -70 73 -72 l28 -3 -3 128 c-3 120 -4 128 -23 128 -18 0 -21 -8 -25
-70 l-5 -70 -39 60 c-43 67 -62 85 -87 85 -13 0 -20 -11 -25 -34z"/>
<path d="M1854 5102 c12 -20 101 -43 187 -49 84 -6 219 11 219 27 0 4 -71 10
-157 14 -87 3 -180 9 -207 13 -33 4 -47 3 -42 -5z"/>
<path d="M1774 4912 c10 -16 99 -32 181 -32 81 0 100 13 35 24 -88 14 -223 19
-216 8z"/>
<path d="M3083 3580 c-52 -23 -63 -44 -63 -118 0 -77 16 -92 94 -92 49 0 60 4
81 26 21 23 25 37 25 89 0 68 -5 75 -61 99 -32 13 -39 13 -76 -4z"/>
<path d="M3406 3394 c-21 -21 -20 -42 4 -81 31 -51 91 -77 164 -70 34 3 71 9
82 12 18 6 25 0 40 -31 27 -54 72 -74 167 -74 85 0 117 11 117 39 0 24 -26 31
-113 31 -59 0 -71 3 -92 25 -14 13 -25 31 -25 40 0 27 -30 75 -47 75 -8 0 -31
-9 -49 -20 -27 -17 -46 -20 -106 -18 -56 2 -73 6 -74 18 -1 8 -2 20 -3 27 -1
14 -29 43 -41 43 -5 0 -16 -7 -24 -16z"/>
<path d="M4575 3106 c-41 -18 -61 -43 -74 -93 -19 -71 11 -103 94 -103 77 0
85 9 85 93 0 43 -5 80 -12 90 -18 23 -58 29 -93 13z"/>
<path d="M2040 4380 c0 -11 5 -20 10 -20 6 0 10 9 10 20 0 11 -4 20 -10 20 -5
0 -10 -9 -10 -20z"/>
<path d="M2001 4254 c0 -11 3 -14 6 -6 3 7 2 16 -1 19 -3 4 -6 -2 -5 -13z"/>
<path d="M1902 3860 c0 -14 2 -19 5 -12 2 6 2 18 0 25 -3 6 -5 1 -5 -13z"/>
<path d="M4515 1970 c-3 -6 1 -7 9 -4 18 7 21 14 7 14 -6 0 -13 -4 -16 -10z"/>
<path d="M3924 1784 c-18 -14 -18 -14 6 -3 31 14 36 19 24 19 -6 0 -19 -7 -30
-16z"/>
<path d="M3870 1760 c-11 -7 -12 -10 -2 -10 9 0 11 -7 6 -22 -6 -20 -5 -21 9
-10 9 7 15 22 14 33 -1 21 -6 23 -27 9z"/>
<path d="M3597 1736 c167 -216 204 -256 167 -185 -33 65 -76 124 -122 167 -50
46 -75 56 -45 18z"/>
<path d="M3342 1600 c-27 -11 -139 -85 -169 -113 -50 -45 12 -50 80 -7 26 17
50 30 53 30 2 0 -6 -21 -20 -47 -49 -97 -55 -120 -41 -139 12 -17 18 -15 86
26 106 63 139 90 139 111 0 28 -24 23 -86 -16 -52 -33 -55 -34 -49 -13 4 13
19 45 32 71 24 48 28 98 8 103 -5 1 -20 -1 -33 -6z"/>
<path d="M3480 1581 c0 -5 10 -22 23 -38 40 -49 112 -156 158 -233 39 -67 44
-72 47 -48 5 43 -71 178 -145 258 -61 66 -83 82 -83 61z"/>
<path d="M3462 1391 c-102 -141 -125 -180 -118 -205 7 -29 30 -33 101 -16 22
5 56 12 75 15 86 14 101 18 106 27 10 17 -18 38 -51 38 -27 0 -37 7 -59 40
-25 38 -25 42 -10 64 13 22 14 28 1 52 l-14 27 -31 -42z m17 -135 c9 -11 5
-16 -20 -25 -48 -17 -55 -13 -29 14 27 29 33 30 49 11z"/>
<path d="M3188 1299 c-8 -23 20 -105 57 -168 34 -58 138 -161 163 -161 7 0
-17 36 -53 79 -36 44 -88 121 -114 171 -27 51 -51 86 -53 79z"/>
<path d="M3568 1158 c-9 -7 -18 -22 -20 -32 -2 -11 -17 -24 -37 -31 -42 -14
-64 -43 -56 -74 8 -33 72 -131 86 -131 10 0 177 100 202 120 9 8 -43 102 -76
138 -23 25 -73 30 -99 10z m85 -75 c25 -34 25 -38 10 -55 -23 -26 -30 -23 -53
23 -17 32 -19 44 -9 55 17 21 23 18 52 -23z m-94 -62 c25 -34 26 -45 7 -60
-11 -9 -18 -5 -36 24 -36 58 -9 90 29 36z"/>
</g>
</svg>
