<svg xmlns="http://www.w3.org/2000/svg" version="1.1" xmlns:xlink="http://www.w3.org/1999/xlink" viewBox="0 0 200 200" width="200" height="200"><metadata><rdf:RDF xmlns:rdf="http://www.w3.org/1999/02/22-rdf-syntax-ns#" xmlns:dc="http://purl.org/dc/elements/1.1/"><rdf:Description><dc:creator>RealFaviconGenerator</dc:creator><dc:source>https://realfavicongenerator.net</dc:source></rdf:Description></rdf:RDF></metadata><rect width="200" height="200" fill="url('#gradient')"></rect><defs><linearGradient id="gradient" gradientTransform="rotate(82 0.5 0.5)"><stop offset="0%" stop-color="#3f506b"></stop><stop offset="100%" stop-color="#161a20"></stop></linearGradient></defs><g><g fill="#fcef78" transform="matrix(3.5858336649423,0,0,3.5858336649423,8.148635964587157,125.13841333309588)" stroke="#ffffff" stroke-width="0.1"><path d="M8.87 0L6.36-5.02L4.50-5.02L4.50 0L1.07 0L1.07-14.22L6.67-14.22Q9.20-14.22 10.63-13.10Q12.05-11.97 12.05-9.92L12.05-9.92Q12.05-8.44 11.45-7.46Q10.85-6.48 9.57-5.88L9.57-5.88L12.54-0.15L12.54 0L8.87 0ZM4.50-11.57L4.50-7.67L6.67-7.67Q7.65-7.67 8.14-8.18Q8.63-8.69 8.63-9.61Q8.63-10.53 8.13-11.05Q7.64-11.57 6.67-11.57L6.67-11.57L4.50-11.57ZM21.85-14.22L25.27-14.22L25.27-4.91Q25.27-3.33 24.60-2.17Q23.93-1.02 22.67-0.41Q21.41 0.20 19.69 0.20L19.69 0.20Q17.09 0.20 15.60-1.15Q14.10-2.50 14.07-4.84L14.07-4.84L14.07-14.22L17.52-14.22L17.52-4.78Q17.58-2.44 19.69-2.44L19.69-2.44Q20.75-2.44 21.30-3.03Q21.85-3.61 21.85-4.93L21.85-4.93L21.85-14.22ZM32.09 0L27.41 0L27.41-14.22L31.99-14.22Q33.88-14.22 35.38-13.36Q36.88-12.51 37.73-10.95Q38.57-9.39 38.58-7.46L38.58-7.46L38.58-6.81Q38.58-4.85 37.76-3.31Q36.93-1.76 35.43-0.88Q33.94-0.01 32.09 0L32.09 0ZM31.99-11.57L30.84-11.57L30.84-2.64L32.03-2.64Q33.51-2.64 34.30-3.69Q35.09-4.74 35.09-6.81L35.09-6.81L35.09-7.42Q35.09-9.48 34.30-10.53Q33.51-11.57 31.99-11.57L31.99-11.57ZM49.16-8.57L49.16-6.03L43.77-6.03L43.77-2.64L50.14-2.64L50.14 0L40.34 0L40.34-14.22L50.16-14.22L50.16-11.57L43.77-11.57L43.77-8.57L49.16-8.57Z"></path></g></g><style>@media (prefers-color-scheme: light) { :root { filter: none; } }
@media (prefers-color-scheme: dark) { :root { filter: none; } }
</style></svg>